<svg xmlns="http://www.w3.org/2000/svg" xml:space="preserve" width="367px" height="50px" x="0px" y="0px" viewBox="0 0 367 50"><g fill="#211646"><path d="M147.108 40.088V9.305h15.914a15.89 15.89 0 0 1 3.646.521c1.2.316 2.265.79 3.196 1.42a7.249 7.249 0 0 1 2.249 2.439c.569.994.854 2.171.854 3.528 0 1.327-.26 2.605-.781 3.835a7.016 7.016 0 0 1-2.44 3.032 8.53 8.53 0 0 1 2.226 1.608c.537.57 1.042 1.327 1.516 2.274.474.947.71 2.115.71 3.504 0 1.232-.245 2.378-.735 3.434a8.748 8.748 0 0 1-1.941 2.725 9.343 9.343 0 0 1-2.77 1.798 8.03 8.03 0 0 1-3.174.664h-18.47zm6.82-26.189v7.718h9.045c.441 0 .883-.078 1.326-.237a3.289 3.289 0 0 0 1.184-.733c.346-.332.631-.735.852-1.208.222-.474.332-1.025.332-1.658 0-1.136-.371-2.068-1.112-2.794-.743-.726-1.808-1.088-3.197-1.088h-8.43zm9.684 21.38a6.495 6.495 0 0 0 2.154-.756 4.432 4.432 0 0 0 1.541-1.469c.394-.615.591-1.381.591-2.298 0-1.42-.514-2.538-1.539-3.361-1.026-.82-2.282-1.23-3.765-1.23h-8.666v9.328h7.197c.854 0 1.683-.07 2.487-.214zM204.316 26.496c0 4.862-1.083 8.405-3.243 10.632-2.164 2.226-5.597 3.338-10.301 3.338-2.367 0-4.413-.275-6.133-.828-1.722-.553-3.126-1.396-4.216-2.532-1.089-1.137-1.894-2.591-2.415-4.358s-.781-3.884-.781-6.346V9.305h6.82v17.333c0 1.864.165 3.385.496 4.571.332 1.182.789 2.13 1.374 2.84.585.711 1.286 1.2 2.107 1.468.82.271 1.736.403 2.747.403.978 0 1.878-.133 2.698-.403.822-.268 1.532-.757 2.132-1.468.6-.71 1.065-1.658 1.397-2.84.331-1.187.496-2.707.496-4.571V9.305h6.82v17.191zM223.354 35.493c1.451 0 2.628-.457 3.528-1.372.899-.916 1.351-2.038 1.351-3.364-.034-1.324-.49-2.382-1.375-3.171-.883-.789-2.067-1.185-3.551-1.185h-6.63c-1.23 0-2.433-.173-3.599-.521a8.914 8.914 0 0 1-3.102-1.611 7.967 7.967 0 0 1-2.157-2.722c-.536-1.09-.804-2.392-.804-3.906 0-1.517.268-2.803.804-3.861.537-1.057 1.256-1.917 2.157-2.581.898-.663 1.932-1.144 3.102-1.444a14.626 14.626 0 0 1 3.646-.45h16.148v4.546h-15.06c-1.296 0-2.338.309-3.126.924-.79.616-1.185 1.571-1.185 2.866 0 1.199.395 2.138 1.185 2.816.788.68 1.83 1.019 3.126 1.019h7.056c1.043 0 2.139.15 3.291.449a9.214 9.214 0 0 1 3.174 1.517c.962.709 1.767 1.656 2.415 2.84.647 1.184.971 2.678.971 4.475 0 1.864-.323 3.396-.971 4.597-.648 1.199-1.453 2.153-2.415 2.864a8.616 8.616 0 0 1-3.174 1.469c-1.152.268-2.232.401-3.243.401h-16.67v-4.595h15.108zM246.371 40.088h-6.82V9.305h6.82v30.783zM278.335 40.088h-9.992l-9.804-25.384v25.384h-6.584V9.305h10.561l9.234 24.72V9.305h6.585v30.783zM305.801 35.493v4.595H282.55V9.305h23.251v4.594h-16.432v8.193h15.486v4.545h-15.486v8.855h16.432zM324.413 35.493c1.452 0 2.628-.457 3.528-1.372.899-.916 1.35-2.038 1.35-3.364-.032-1.324-.489-2.382-1.373-3.171s-2.068-1.185-3.553-1.185h-6.629c-1.231 0-2.432-.173-3.599-.521a8.928 8.928 0 0 1-3.103-1.611 7.962 7.962 0 0 1-2.155-2.722c-.538-1.09-.805-2.392-.805-3.906 0-1.517.267-2.803.805-3.861.536-1.057 1.255-1.917 2.155-2.581.899-.663 1.933-1.144 3.103-1.444a14.632 14.632 0 0 1 3.646-.45h16.148v4.546h-15.06c-1.296 0-2.338.309-3.127.924-.788.616-1.184 1.571-1.184 2.866 0 1.199.396 2.138 1.184 2.816.789.68 1.831 1.019 3.127 1.019h7.056c1.042 0 2.139.15 3.291.449a9.223 9.223 0 0 1 3.174 1.517c.962.709 1.767 1.656 2.416 2.84.646 1.184.969 2.678.969 4.475 0 1.864-.322 3.396-.969 4.597-.649 1.199-1.454 2.153-2.416 2.864a8.616 8.616 0 0 1-3.174 1.469c-1.152.268-2.232.401-3.243.401h-16.671v-4.595h15.109zM354.059 35.493c1.451 0 2.628-.457 3.529-1.372.898-.916 1.35-2.038 1.35-3.364-.034-1.324-.49-2.382-1.375-3.171-.883-.789-2.066-1.185-3.552-1.185h-6.63c-1.23 0-2.432-.173-3.598-.521a8.91 8.91 0 0 1-3.103-1.611 7.976 7.976 0 0 1-2.156-2.722c-.536-1.09-.805-2.392-.805-3.906 0-1.517.269-2.803.805-3.861.537-1.057 1.256-1.917 2.156-2.581.898-.663 1.932-1.144 3.103-1.444a14.626 14.626 0 0 1 3.646-.45h16.149v4.546h-15.06c-1.296 0-2.338.309-3.127.924-.789.616-1.184 1.571-1.184 2.866 0 1.199.395 2.138 1.184 2.816.789.68 1.831 1.019 3.127 1.019h7.057c1.042 0 2.138.15 3.291.449a9.24 9.24 0 0 1 3.174 1.517c.962.709 1.765 1.656 2.414 2.84.646 1.184.971 2.678.971 4.475 0 1.864-.324 3.396-.971 4.597-.649 1.199-1.452 2.153-2.414 2.864a8.631 8.631 0 0 1-3.174 1.469c-1.153.268-2.234.401-3.245.401h-16.67v-4.595h15.108z"/></g><g fill="#211646"><path d="M29.543 40.088 16.836 24.096l12.25-14.789h-8.632L8.793 23.946V9.307H2.221v30.781h6.572V24.263l11.429 15.825zM76.134 21.349c1.906 0 10.018 1.224 10.018 9.29 0 8.53-8.187 9.449-8.187 9.449H58.827v-4.986l15.399.007c4.465 0 4.423-4.259 4.423-4.259 0-4.67-5.28-4.479-5.28-4.479h-5.895c-2.708 0-9.682-.975-9.682-8.185 0-8.666 8.649-8.879 8.649-8.879h17.52v4.922l-14.385.011c-4.647 0-4.571 3.608-4.571 3.608s.04 3.52 4.065 3.52l7.064-.019zM48.65 40.088c4.627 0 8.836-3.389 8.836-8.594 0-5.944-4.395-7.801-4.395-7.801s3.489-1.199 3.16-6.533c-.474-7.729-9.2-7.854-9.2-7.854H30.122v30.767c0 .001 14.63.015 18.528.015zM36.339 14.305h8.474s4.609-.207 4.609 3.617c0 3.293-2.896 3.509-3.832 3.573h-9.252v-7.19zm7.725 20.772h-7.725v-8.653l9.528.004s4.813.179 4.813 4.271-3.607 4.378-6.616 4.378z"/></g><path fill="#009BDE" d="M136.156 24.058a18.945 18.945 0 0 0-.231-2.452c-.004-.009-.004-.018-.004-.026a21.71 21.71 0 0 0-.604-2.658 22.623 22.623 0 0 0-2.237-5.094c-2.784-4.674-6.921-7.894-11.223-9.209l.003.002s-9.821-3.27-15.124 2.12c-.098.1-.189.209-.282.313-3.424 1.212-6.363 3.262-8.489 5.856-1.639 2.003-2.793 4.339-3.31 6.861-.046.215-.163.838-.17.898-.393 2.391-.299 4.363-.299 4.363l.004.001-.002.216c.045 1.714.323 3.473.844 5.23a22.678 22.678 0 0 0 2.235 5.089c2.786 4.676 6.921 7.895 11.222 9.212l-.002-.005s9.821 3.273 15.126-2.115c.096-.104.187-.211.276-.315 3.431-1.214 6.369-3.264 8.493-5.857a16.338 16.338 0 0 0 2.389-3.924c1.317-2.974 1.483-6.247 1.385-8.506zM105.197 8.942c1.708-.795 3.614-1.419 5.73-1.828 3.188-.639 6.276-.739 9.123-.362 6.271.83 11.372 3.976 13.783 8.77l.062.123c.02.056.002.1-.029.122-.037.022-.105.006-.155-.054a1.153 1.153 0 0 0-.073-.119c-1.971-3.091-5.118-5.441-8.983-6.8-3.892-1.374-8.511-1.746-13.372-.863-2.447.428-4.624 1.141-6.534 2.085.128-.366.275-.726.448-1.074zm-.895 3.578a36.178 36.178 0 0 1 6.276-2.171c7.135-1.773 13.542-.899 18.157 1.739 3.202 1.833 5.536 4.518 6.645 7.763a.942.942 0 0 1 .045.136v.009c.053.163-.005.223-.066.232a.092.092 0 0 1-.089-.056 1.21 1.21 0 0 1-.045-.108c-1.009-2.425-2.723-4.506-4.975-6.097-4.706-3.328-11.762-4.549-19.688-2.485a37.52 37.52 0 0 0-6.186 2.281c-.012-.081-.027-.165-.033-.244a8.803 8.803 0 0 1-.041-.999zm20.846 27.936a24.728 24.728 0 0 1-5.728 1.828c-3.188.637-6.276.742-9.121.36-6.274-.828-11.375-3.974-13.786-8.769-.021-.04-.042-.083-.063-.121-.017-.06-.001-.102.03-.123.041-.023.105-.009.156.05.024.044.045.08.074.124 1.972 3.09 5.12 5.437 8.979 6.798 3.898 1.377 8.515 1.745 13.376.861 2.448-.429 4.622-1.142 6.531-2.086a9.533 9.533 0 0 1-.448 1.078zm.895-3.579a35.919 35.919 0 0 1-6.278 2.173c-7.131 1.773-13.54.903-18.151-1.739-3.2-1.835-5.535-4.52-6.648-7.762-.016-.045-.032-.089-.044-.134 0-.005-.003-.008-.003-.018-.049-.158.01-.219.068-.228a.101.101 0 0 1 .091.053c.019.034.03.073.045.112 1.011 2.423 2.726 4.503 4.975 6.101 4.704 3.325 11.761 4.549 19.692 2.48a38.116 38.116 0 0 0 6.183-2.281c.011.084.023.162.032.245.035.335.047.665.038.998zm9.817-12.394c-.03.004-.06-.024-.082-.065-.007-.034-.018-.064-.022-.094-.549-2.177-1.683-4.073-3.261-5.638-4.524-4.496-12.717-6.292-21.361-4.195a30.046 30.046 0 0 0-5.841 2.105c.264.492.579.95.934 1.375a28.68 28.68 0 0 1 8.499-2.496 26.247 26.247 0 0 1 5.91-.128c5.125.472 9.583 2.475 12.304 5.501 1.748 1.94 2.777 4.303 2.807 6.955.002.066 0 .144 0 .215 0 .067 0 .131-.004.195-.012.097-.077.116-.134.112-.039-.005-.079-.03-.089-.064-.007-.066-.016-.13-.024-.193-.285-2.105-1.135-3.991-2.435-5.598-1.714-2.116-4.205-3.742-7.22-4.729-3.588-1.172-7.918-1.438-12.546-.542a30.053 30.053 0 0 0-6.052 1.798c.5.426 1.051.802 1.642 1.114 2.126-.942 4.55-1.598 7.171-1.865 5.209-.532 10.094.564 13.591 2.75 1.35.842 2.494 1.851 3.364 2.987 1.202 1.559 1.896 3.367 1.923 5.344a9.076 9.076 0 0 1-.535 3.218c-.011.038-.028.073-.038.108-.028.042-.065.066-.095.059-.038-.008-.054-.057-.054-.118.009-.031.016-.074.026-.106a8.483 8.483 0 0 0 .169-2.545c-.129-1.601-.698-3.074-1.611-4.378a11.772 11.772 0 0 0-.628-.812c-3.366-3.91-10.032-5.962-17.046-4.655a26.047 26.047 0 0 0-3.791.912 9.996 9.996 0 0 0 3.441.147s1.908-.255 2.694-.426c.16-.02.406-.062.516-.065l.056-.004c1.13-.11 4.614-.3 8.259 1.007 0 0 4.094 1.391 5.883 4.494 0 0 .402.573-.184 1.369a17.812 17.812 0 0 1-1.791 1.974c-.629.578-1.724 1.353-1.724 1.353a28.529 28.529 0 0 1-3.175 1.84l-.007-.017c-.083.043-.167.079-.249.119l.009.018c.044.076.084.155.123.231.135.272.252.548.358.838a31.644 31.644 0 0 1-6.073 2.16c-8.379 2.097-16.31.635-20.954-3.461-2.184-1.925-3.643-4.438-4.076-7.43a1.598 1.598 0 0 0-.021-.148c0-.077.033-.092.066-.093.03-.002.058.022.084.063.009.035.016.068.026.097.546 2.179 1.677 4.067 3.258 5.638 4.525 4.495 12.715 6.294 21.359 4.193.657-.16 1.301-.344 1.932-.549a30.07 30.07 0 0 0 3.91-1.557 8.518 8.518 0 0 0-.935-1.375 28.459 28.459 0 0 1-8.495 2.497 26.098 26.098 0 0 1-5.913.129c-5.125-.473-9.583-2.476-12.302-5.502-1.747-1.938-2.775-4.304-2.81-6.952a15.77 15.77 0 0 1 .006-.413c.01-.094.077-.113.131-.111.037.003.081.029.089.065l.024.192c.285 2.106 1.14 3.992 2.436 5.597 1.712 2.115 4.206 3.742 7.219 4.729 3.594 1.171 7.919 1.439 12.547.542a29.924 29.924 0 0 0 6.052-1.798 9.214 9.214 0 0 0-1.64-1.118c-2.13.947-4.552 1.604-7.174 1.869-5.207.533-10.095-.565-13.591-2.75-1.348-.844-2.493-1.848-3.366-2.988-1.2-1.561-1.896-3.368-1.924-5.343a9.083 9.083 0 0 1 .537-3.217c.013-.031.026-.071.041-.108.026-.041.06-.065.095-.06.031.008.054.057.052.118a4.287 4.287 0 0 1-.028.108 8.685 8.685 0 0 0-.17 2.545c.133 1.597.7 3.074 1.611 4.376.196.277.405.55.635.812 3.361 3.907 10.027 5.967 17.037 4.652a24.806 24.806 0 0 0 3.795-.909 9.94 9.94 0 0 0-3.439-.141s-1.91.252-2.7.421c-.158.02-.4.059-.514.063l-.054.006c-1.131.107-4.615.302-8.257-1.011 0 0-4.094-1.385-5.883-4.491 0 0-.402-.571.184-1.368a17.703 17.703 0 0 1 1.789-1.972c.631-.579 1.725-1.353 1.725-1.353v-.001a28.51 28.51 0 0 1 3.172-1.84l.008.014.25-.119c-.004-.005-.005-.011-.013-.018-.034-.077-.08-.153-.117-.233a7.745 7.745 0 0 1-.362-.834 31.645 31.645 0 0 1 6.075-2.163c8.378-2.095 16.31-.631 20.953 3.465 2.184 1.925 3.646 4.432 4.08 7.429.005.05.012.099.016.146.005.076-.027.092-.063.095z"/></svg>